<?xml version="1.0" encoding="UTF-8" standalone="no"?>
<svg xmlns:rdf="http://www.w3.org/1999/02/22-rdf-syntax-ns#" xmlns="http://www.w3.org/2000/svg" height="141.11mm" width="250.58mm" version="1.1" xmlns:cc="http://creativecommons.org/ns#" xmlns:dc="http://purl.org/dc/elements/1.1/" viewBox="0 0 887.86751 500.00001">
<g transform="translate(-55.521 62.589)">
<path fill="#9c0024" d="m250.2 137.52c18.833 2.3854 31.399 49.893 31.399 49.893s-12.566 47.518-31.399 49.903c-18.844 2.3654-18.844 2.3654-18.844 2.3654v-52.269-52.269l18.844 2.3754z"/>
<path fill="#9c0024" d="m748.72 137.52c-18.833 2.3754-31.399 49.893-31.399 49.893s12.556 47.518 31.399 49.903c18.844 2.3654 18.844 2.3654 18.844 2.3654v-52.269-52.269l-18.844 2.3754z"/>
<path fill="#d51c2b" d="m748.72 187.42c0 84.476-73.807 250-249.1 250s-249.1-165.52-249.1-250c0-84.486 73.807-250 249.1-250s249.1 165.52 249.1 250z"/>
<g fill="#b50d26">
<path d="m748.4 187.42c0 3.5032-85.983-60.213-93.878-121.48 0 0 93.878 23.265 93.878 121.48z"/>
<path d="m748.4 187.42c2.4852-2.4752-103.37-18.225-152.28 19.522 0 0 82.819 49.943 152.28-19.522z"/>
<path d="m767.56 239.68s56.52 106.75 131.87 144.44c0 0 20.41-46.899 20.41-213.41l-152.28 16.698"/>
</g>
<path d="m865.78 362.2c10.669 8.5334 21.937 16.069 33.655 21.927 0 0 20.41-46.899 20.41-213.41l-38.066 4.1819c-0.6388 109.02-10.2 163.92-15.999 187.3z" fill="#d51c2b"/>
<path d="m767.56 135.15s56.52-106.76 131.87-144.44c0 0 43.955 44.214 43.955 196.71 0 0-96.423 76.911-175.83 11.208" fill="#d51c2b"/>
<path d="m904.74 208.5 0.6287 1.2975c23.005-10.45 38.016-22.387 38.016-22.387 0-152.49-43.955-196.71-43.955-196.71-11.488 5.7389-22.526 13.105-33.016 21.428 13.284 21.658 38.326 78.128 38.326 196.37z" fill="#ffa38c"/>
<path d="m231.36 135.15s-56.52-106.76-131.87-144.44c0 0-20.41 46.899-20.41 213.4l152.28-16.688" fill="#b50d26"/>
<path d="m133.13 12.635c-10.67-8.5336-21.93-16.069-33.655-21.928 0 0-20.41 46.899-20.41 213.4l38.066-4.1719c0.65-109.04 10.21-163.93 16-187.3z" fill="#d51c2b"/>
<path d="m231.36 239.68s-56.52 106.75-131.87 144.44c0 0-43.955-44.214-43.955-196.71 0 0 96.423-76.911 175.84-11.198" fill="#d51c2b"/>
<path d="m94.166 166.33-0.6288-1.2975c-23.005 10.45-38.016 22.387-38.016 22.387 0 152.49 43.955 196.71 43.955 196.71 11.488-5.7389 22.526-13.105 33.006-21.428-13.26-21.65-38.314-78.13-38.314-196.37z" fill="#ffa38c"/>
<path d="m250.56 182.88c0-3.5032 85.983 60.213 93.878 121.48 0 0-93.878-23.265-93.878-121.48z" fill="#b50d26"/>
<path d="m250.56 182.88c-2.4752 2.4752 103.37 18.215 152.28-19.522 0 0-82.819-49.943-152.28 19.522z" fill="#b50d26"/>
<path fill="#9c0024" d="m250.52 187.42c-1.2475-13.693-1.1278-27.786 2.1958-41.679 3.2038-13.813 10.36-27.616 22.137-37.497 11.807-9.9008 27.187-14.502 41.929-15.68 14.881-1.1977 29.503 0.89826 43.506 4.142 56.101 14.212 103.9 46.16 147.28 81.083 20.62 17.276 42.348 33.196 65.074 47.238 22.566 14.262 46.55 26.259 71.392 34.303 12.436 3.9424 25.211 6.3477 37.797 6.6072 12.536 0.21958 25.002-2.3155 35.202-9.1522 10.39-6.5673 18.005-17.486 22.886-29.772 4.8805-12.336 7.4256-25.9 8.783-39.593 1.2575 13.703 1.1378 27.776-2.1758 41.689-3.2138 13.813-10.35 27.626-22.147 37.517-11.817 9.8908-27.197 14.502-41.939 15.69-14.891 1.1777-29.513-0.89826-43.516-4.1519-56.111-14.222-103.91-46.17-147.27-81.123-20.6-17.306-42.358-33.176-65.064-47.268-22.576-14.242-46.55-26.269-71.392-34.303-12.436-3.9424-25.221-6.3277-37.807-6.6072-12.546-0.21957-25.002 2.3355-35.212 9.1622-10.4 6.5772-17.995 17.516-22.886 29.792-4.8805 12.356-7.4256 25.9-8.773 39.603z"/>
<path d="m501.64 18.054c8.3937 25.95 40.621 46.969 71.97 46.969 31.369 0 49.963-21.019 41.559-46.969-8.3937-25.96-40.621-46.979-71.97-46.979s-49.963 21.029-41.559 46.979z" stroke="#ffa38c" stroke-miterlimit="10" stroke-width="12.173" fill="#ffe5ff"/>
<path d="m578.77 120.43c3.3136 10.2 15.999 18.494 28.335 18.494 12.356 0 19.682-8.2839 16.368-18.494-3.3135-10.22-15.999-18.504-28.345-18.504s-19.672 8.2839-16.358 18.504z" fill="#ffe5ff"/>
</g>
</svg>
